<svg xmlns="http://www.w3.org/2000/svg" version="1.0" width="432" height="216">
  <path style="fill:none;fill-opacity:0" d="M0 0h432v216H0z"/>
  <path d="M231.55783 215.90671s-88.05292 6.9842-90.83447-110.97243C138.60988 15.479477 239.56843.02377087 239.56843.02377087L-.00041878-.27765556 0 216l231.55783-.09329z" style="fill:none;fill-opacity:0;fill-rule:evenodd;stroke:none;stroke-width:.30000007;stroke-linecap:butt;stroke-linejoin:miter;stroke-miterlimit:4;stroke-dasharray:none;stroke-opacity:1"/>
  <path d="M79.248183-.04498103S71.046981 1.485589 67.034768 1.845249c-4.012212.35967-3.83544-.45157-3.83544-.45157-15.010742 8.1780067-23.519899 22.280386-27.101566 38.61955-2.540843 15.295467 2.768232 31.83996 13.586499 40.035331 0 0-16.400314-14.968991-8.369733-42.928141 5.164525-13.909991 15.74769-24.705142 29.627125-30.03032-1.375847-4.063046 5.388088-5.9345484 8.30653-7.13508003z" style="fill:#fff;fill-opacity:1;fill-rule:evenodd;stroke:#fff;stroke-width:.08428708;stroke-linecap:butt;stroke-linejoin:miter;stroke-miterlimit:4;stroke-dasharray:none;stroke-opacity:1" transform="matrix(2.37284 0 0 2.37284 51.50252 .20701)"/>
  <path d="M38.453466 71.350989c-8.240184-15.382601-8.241011-33.96342-.510761-49.5094-1.024317 1.47258-5.460587 8.648156-7.881131 8.03702-4.620034 14.948835.739498 29.123701 8.391892 41.47238z" style="fill:#fff;fill-opacity:1;fill-rule:evenodd;stroke:#fff;stroke-width:.16857414;stroke-linecap:round;stroke-linejoin:miter;stroke-miterlimit:4;stroke-dasharray:none;stroke-opacity:1" transform="matrix(2.37284 0 0 2.37284 51.50252 .20701)"/>
  <path d="M66.602022 16.097389c3.338947-2.059335-2.875436 3.7515-3.665721 6.38904-.79028 2.63754.81663 4.16113.81663 4.16113-18.567254 7.926439-22.2226 30.579982-13.442925 46.75647-10.483492-13.323323-9.132192-29.183822-.729493-42.68026 5.807041-9.327286 13.682562-12.567045 17.021509-14.62638z" style="fill:#fff;fill-opacity:1;fill-rule:evenodd;stroke:#fff;stroke-width:.04214355;stroke-linecap:butt;stroke-linejoin:miter;marker-start:none;marker-mid:none;stroke-miterlimit:4;stroke-dasharray:none;stroke-opacity:1" transform="matrix(2.37284 0 0 2.37284 51.50252 .20701)"/>
  <path d="M53.59001 83.928719c-.595891-.34362 6.300785 4.94553 13.018819 6.13435 24.682034 4.36772 44.630841-8.514172 43.706051-34.72319-.83379-23.630112-33.669018-36.528177-50.614207-20.63642-18.083087 16.958916-10.10806 47.475935 15.714763 50.14393-28.067289-4.106793-31.337616-45.620141-3.616927-52.09156 31.519311-3.38006 40.841611 33.964979 18.960351 50.7224-9.553841 7.316659-25.439442 7.2141-37.16885.45049z" style="fill:#fff;fill-opacity:1;fill-rule:evenodd;stroke:#fff;stroke-width:.08428708;stroke-linecap:butt;stroke-linejoin:miter;stroke-miterlimit:4;stroke-dasharray:none;stroke-opacity:1" transform="matrix(2.37284 0 0 2.37284 51.50252 .20701)"/>
</svg>
